<svg width="24" height="24" viewBox="0 0 24 24" fill="none" xmlns="http://www.w3.org/2000/svg">
<path d="M12 24C9.50625 24 7.38263 23.1442 5.62913 21.4326C3.87563 19.7209 2.99925 17.6372 3 15.1814C3 14.0093 3.22988 12.8886 3.68963 11.8192C4.14938 10.7498 4.80075 9.8054 5.64375 8.98605L10.3672 2.30836C11.1642 1.18164 12.8358 1.18164 13.6328 2.30836L18.3562 8.98605C19.2 9.80465 19.8517 10.749 20.3115 11.8192C20.7712 12.8893 21.0007 14.01 21 15.1814C21 17.6372 20.1236 19.7209 18.3709 21.4326C16.6181 23.1442 14.4945 24 12 24Z" fill="white"/>
</svg>
