<svg width="22" height="27" viewBox="0 0 22 27" fill="none" xmlns="http://www.w3.org/2000/svg">
<path d="M11.0002 0.666687C5.40016 0.666687 0.333496 4.96002 0.333496 11.6C0.333496 15.84 3.60016 20.8267 10.1202 26.5734C10.6268 27.0134 11.3868 27.0134 11.8935 26.5734C18.4002 20.8267 21.6668 15.84 21.6668 11.6C21.6668 4.96002 16.6002 0.666687 11.0002 0.666687ZM11.0002 14C9.5335 14 8.3335 12.8 8.3335 11.3334C8.3335 9.86669 9.5335 8.66669 11.0002 8.66669C12.4668 8.66669 13.6668 9.86669 13.6668 11.3334C13.6668 12.8 12.4668 14 11.0002 14Z" fill="white"/>
</svg>
