<svg width="24" height="24" viewBox="0 0 24 24" fill="none" xmlns="http://www.w3.org/2000/svg">
<path d="M14.262 2.73843C14.378 2.85144 14.874 3.27813 15.282 3.6756C17.848 6.00585 22.048 12.0848 23.33 15.2664C23.536 15.7496 23.972 16.9713 24 17.624C24 18.2494 23.856 18.8456 23.564 19.4145C23.156 20.1237 22.514 20.6926 21.756 21.0044C21.23 21.2051 19.656 21.5168 19.628 21.5168C17.906 21.8285 15.108 22 12.016 22C9.07 22 6.386 21.8285 4.638 21.5733C4.61 21.5441 2.654 21.2323 1.984 20.8914C0.76 20.266 0 19.0443 0 17.737V17.624C0.03 16.7725 0.79 14.982 0.818 14.982C2.102 11.9717 6.096 6.03312 8.75 3.64637C8.75 3.64637 9.432 2.97418 9.858 2.68193C10.47 2.22601 11.228 2 11.986 2C12.832 2 13.62 2.25524 14.262 2.73843Z" fill="white"/>
</svg>
