<svg width="24" height="24" viewBox="0 0 24 24" fill="none" xmlns="http://www.w3.org/2000/svg">
<path d="M9.738 21.2616C9.622 21.1486 9.126 20.7219 8.718 20.3244C6.152 17.9942 1.952 11.9152 0.67 8.73356C0.464 8.25037 0.028 7.02874 0 6.37604C0 5.75061 0.144 5.15441 0.436 4.58548C0.844 3.87628 1.486 3.30736 2.244 2.99562C2.77 2.79493 4.344 2.4832 4.372 2.4832C6.094 2.17146 8.892 2 11.984 2C14.93 2 17.614 2.17146 19.362 2.42669C19.39 2.45592 21.346 2.76766 22.016 3.10862C23.24 3.73405 24 4.95567 24 6.26303V6.37604C23.97 7.22747 23.21 9.01802 23.182 9.01802C21.898 12.0283 17.904 17.9669 15.25 20.3536C15.25 20.3536 14.568 21.0258 14.142 21.3181C13.53 21.774 12.772 22 12.014 22C11.168 22 10.38 21.7448 9.738 21.2616Z" fill="white"/>
</svg>
